<svg xmlns:xlink="http://www.w3.org/1999/xlink" xmlns="http://www.w3.org/2000/svg" style="width: 24px; height: 24px; fill: var(--color-icon-high-emphasis);" width="24"  height="24" ><defs><symbol id="moreHoriz" xmlns="http://www.w3.org/2000/svg" viewBox="0 0 24 24"><path fill-rule="evenodd" d="M16 12c0 1.1.9 2 2 2s2-.9 2-2-.9-2-2-2-2 .9-2 2zm-4-2c-1.1 0-2 .9-2 2s.9 2 2 2 2-.9 2-2-.9-2-2-2zm-8 2c0-1.1.9-2 2-2s2 .9 2 2-.9 2-2 2-2-.9-2-2z" clip-rule="evenodd"></path></symbol></defs><use xlink:href="#moreHoriz" fill="#424750"></use></svg>